<svg width="72" height="72" viewBox="0 0 72 72" fill="none" xmlns="http://www.w3.org/2000/svg">
<rect x="0.4359" y="0.262072" width="71.4337" height="71.6303" rx="35.7169" fill="white"/>
<rect x="0.4359" y="0.262072" width="71.4337" height="71.6303" rx="35.7169" fill="url(#paint0_linear_704_4502)"/>
<rect x="0.4359" y="0.262072" width="71.4337" height="71.6303" rx="35.7169" stroke="#171717" stroke-width="0.0592997"/>
<path d="M51.6473 20.4961C47.5361 16.3815 42.0687 14.1144 36.2434 14.1121C24.241 14.1121 14.4725 23.8768 14.4677 35.8793C14.4662 39.716 15.4689 43.461 17.3744 46.7621L14.2852 58.0426L25.8287 55.0156C29.0093 56.7497 32.5902 57.6637 36.2348 57.6652H36.2437C48.2449 57.6652 58.0143 47.8993 58.0192 35.8966C58.0215 30.0801 55.7586 24.6108 51.6473 20.4961ZM36.2437 53.9887H36.2363C32.9886 53.9874 29.8033 53.1153 27.0245 51.4667L26.3635 51.0746L19.5134 52.871L21.3418 46.1943L20.9114 45.5098C19.0996 42.629 18.1428 39.2994 18.1442 35.8807C18.1481 25.9048 26.2674 17.7886 36.2507 17.7886C41.0849 17.7905 45.6292 19.675 49.0463 23.0949C52.4635 26.5148 54.3443 31.0607 54.3425 35.8953C54.3386 45.872 46.2194 53.9887 36.2437 53.9887ZM46.1714 40.4378C45.6272 40.1656 42.9522 38.8496 42.4535 38.6681C41.9548 38.4866 41.5921 38.3958 41.2292 38.9404C40.8666 39.4849 39.8239 40.7101 39.5064 41.0731C39.189 41.4361 38.8716 41.4815 38.3276 41.2092C37.7834 40.937 36.0303 40.3626 33.9521 38.5096C32.3347 37.0674 31.2426 35.2861 30.9252 34.7415C30.6079 34.1969 30.8915 33.9026 31.1639 33.6314C31.4086 33.3877 31.7079 32.9961 31.98 32.6785C32.252 32.361 32.3427 32.134 32.5241 31.771C32.7055 31.4079 32.6148 31.0903 32.4787 30.818C32.3427 30.5458 31.2545 27.8685 30.8011 26.7795C30.3595 25.7188 29.9109 25.8624 29.5769 25.8457C29.2599 25.8299 28.8968 25.8266 28.5341 25.8266C28.1714 25.8266 27.5819 25.9627 27.0832 26.5072C26.5845 27.0518 25.1789 28.3677 25.1789 31.0449C25.1789 33.7221 27.1285 36.3086 27.4006 36.6716C27.6727 37.0346 31.2372 42.5287 36.6953 44.8847C37.9935 45.4451 39.0069 45.7798 39.7971 46.0305C41.1005 46.4443 42.2867 46.386 43.2242 46.246C44.2696 46.0898 46.4433 44.9302 46.8968 43.6596C47.3502 42.389 47.3502 41.3 47.2142 41.0731C47.0781 40.8463 46.7155 40.7101 46.1714 40.4378Z" fill="white"/>
<defs>
<linearGradient id="paint0_linear_704_4502" x1="36.1527" y1="0.232422" x2="36.1527" y2="71.9221" gradientUnits="userSpaceOnUse">
<stop/>
<stop offset="1" stop-color="#575555"/>
</linearGradient>
</defs>
</svg>
